# xmcd
#
# Track frame offsets:
#	150
#	12907
#	26214
#	39991
#	53000
#	64315
#	77494
#	90851
#	100723
#	113935
#	127235
#	141089
#	153244
#	167396
#	179625
#	190640
#	202607
#	216406
#	229023
#	240493
#	251337
#	262817
#	273216
#	282853
#	292585
#	302057
#
# Disc length: 4178 seconds
#
# Revision: 1
# Processed by: cddbd v1.5.2PL0 Copyright (c) Steve Scherf et al.
# Submitted via: EZCDAudioConverter 3.1.0.1
#
DISCID=5110501a
DTITLE=T-Bone Walker - The Complete Imperial Recordings, 1950-1954 Disc 2
DYEAR=1991
DGENRE=Blues
TTITLE0=Blues Is a Woman
TTITLE1=I Got the Blues
TTITLE2=Here in the Dark
TTITLE3=Blue Mood
TTITLE4=Everytime
TTITLE5=I Miss You Baby
TTITLE6=Lollie Lou
TTITLE7=Party Girl
TTITLE8=Love Is a Gamble
TTITLE9=High Society
TTITLE10=Long Distance Blues
TTITLE11=Got No Use for You
TTITLE12=I'm Still in Love With You
TTITLE13=Railroad Station Blues
TTITLE14=Vida Lee
TTITLE15=My Baby Is Now on My Mind
TTITLE16=Doin' Time
TTITLE17=Bye, Bye, Baby
TTITLE18=When the Sun Goes Down
TTITLE19=Pony Tail
TTITLE20=Wanderin' Heart
TTITLE21=I'll Always Be in Love With You
TTITLE22=I'll Understand
TTITLE23=Hard Way
TTITLE24=Teen Age Baby
TTITLE25=Strugglin' Blues
EXTD=
EXTT0=
EXTT1=
EXTT2=
EXTT3=
EXTT4=
EXTT5=
EXTT6=
EXTT7=
EXTT8=
EXTT9=
EXTT10=
EXTT11=
EXTT12=
EXTT13=
EXTT14=
EXTT15=
EXTT16=
EXTT17=
EXTT18=
EXTT19=
EXTT20=
EXTT21=
EXTT22=
EXTT23=
EXTT24=
EXTT25=
PLAYORDER=
